<?xml version="1.0" standalone="no"?>
<!DOCTYPE svg PUBLIC "-//W3C//DTD SVG 1.1//EN" "http://www.w3.org/Graphics/SVG/1.1/DTD/svg11.dtd" >
<svg xmlns="http://www.w3.org/2000/svg" xmlns:svg="http://www.w3.org/2000/svg" xmlns:xlink="http://www.w3.org/1999/xlink" viewBox="0 0 2048 2048"><path d="M1235.61 764.06L1273.14 575.5Q1253.93 562.9 1233.1 573.8Q1233.4 563.72 1236.79 573.56L1196.02 570.42L1197.42 571.4Q1131.42 602.63 1057.08 618.72Q1064.48 646.6 1040.85 650.35Q1025.45 640.68 975.8 601.65Q917.99 556.47 912.3 556.6Q912.05 550.88 945.65 555.26L1035.21 543.84L1154.73 523.74L1243.31 490.25L1264.03 379.17Q1266.24 245.12 1199.48 201.76Q1187.73 160.79 1205.04 179.21Q1187.97 136.7 1242.17 135.28Q1308.79 127.63 1362.72 163.17Q1427.69 164.15 1417.93 219.57Q1426.19 235.87 1407.27 254.9Q1370.46 291.44 1372.4 386.87L1361.02 468.76L1549.97 423.56Q1558.26 413.54 1589.53 406.25Q1609.72 409.97 1625.61 431.29Q1632.72 399.98 1664.99 428.56H1668.09Q1677.34 414.27 1746.43 430.02Q1794.81 465.28 1818.47 473.18Q1822.14 530.66 1682.93 523.98L1547.21 517L1374.11 535.33L1350.61 780L1504.76 734.28Q1581.73 700.11 1573.26 713.57H1578.39Q1594.6 730.54 1633.76 733.31Q1674.38 730.3 1675.52 749.09Q1709.24 785.29 1704.06 799.41Q1696.41 791.44 1653.14 820.06L1568.49 796.37Q1442.41 809.86 1347.42 850.75L1225.09 868.59Q1162.43 886.58 1122.27 885.42Q1141.81 881.03 1111.16 883.12Q1118.74 895.64 1095.09 869.23H1106.59Q1075.2 866.37 1022.52 868.16Q1019.17 853.61 1022.53 819.72Q1003.65 827.51 1048.38 825.74L1109.64 821.05L1186.41 787.8ZM1544.82 993.37L1666.65 967.59L1768.46 949.26Q1799.44 981.66 1863.51 995.36Q1946.25 1040.48 1911.89 1077.42Q1921.1 1064.9 1856.24 1080.58L1746.65 1097.81L1539.41 1119.61L1550.69 1475.33L1537 1629.75Q1564.67 1678.45 1517.88 1770Q1530.47 1809.35 1461.17 1864.94Q1436.44 1932.75 1435.37 1911.11Q1375.44 1931.22 1376.09 1841.85Q1313.2 1778.84 1246.15 1704.72L1168.08 1654.66Q1190.29 1659.44 1178.29 1654.83Q1178.43 1648.62 1200.36 1630.02Q1210.09 1648.73 1195.7 1622.59L1218.61 1660.28L1329.18 1669.14Q1354.57 1707.78 1352.56 1710.68Q1401.74 1686.29 1416.85 1638.76Q1437.35 1627.25 1428.84 1578.3Q1407.67 1530.54 1425.52 1459.07Q1431.79 1356.68 1432.96 1278.28L1420.14 1241.94L1430.56 1123.37L1406.15 1133.85L1410.04 1131.47Q1252.94 1131.4 1154.93 1136.3L1074.28 1176.27L966.31 1203.25H943.63H960.2Q945.63 1181.96 888.69 1165.87Q803.17 1161.45 816.66 1116.9Q803.55 1088.72 832.48 1115.38L915.13 1078.95L1020.53 1094.95L1242.51 1056.72L1437.06 1022.48V963.96Q1427.78 979.77 1420.4 942.01L1427.79 911.77Q1410.84 928.54 1395.32 909.38Q1411.47 896.85 1395.43 909.7Q1410.85 894.6 1394.66 920.35L1372.48 883.22Q1392.43 867.73 1380.21 854.03Q1366.64 841.39 1418.6 852.15L1466.29 863.09Q1518.92 852.06 1524.71 854.94Q1549.03 896.58 1566.28 879.35Q1542.46 893.76 1544.1 897.6L1547.93 886.26Q1555.67 906.42 1550.55 909.47Q1544.05 943.95 1557.41 944.41L1542.79 975.07ZM606.89 539.82Q587.1 537.77 590.34 540.79Q532.81 499.83 539.65 457.95L500.74 411.44Q469.52 363.04 455.18 317.83L454.63 296.68Q458.08 285.1 455.27 280.46Q444.19 270.14 462.54 253.34Q465.89 265.55 493.74 246.81L496.37 279.45Q686.89 338.82 652.6 444.86Q672.74 495.53 639.89 533.79L628.33 539.75L712.08 513.86Q768.46 505.44 772.67 526.13Q791.87 534 848.71 521.68Q900.94 564.02 901.08 557.19Q889.73 594.39 855.23 607.87Q840.21 581.6 822.2 602.67L822.03 582.74L816.35 581.38L797.78 614.24L792.98 622.37L805.08 601.55L779.31 604.1Q677.98 631.74 668.81 631.52L509.21 657.67Q463.9 657.76 459.77 684.89L390.6 713.57Q323.88 720.41 319.1 741.66Q301.2 738.83 254.52 728.5Q232.37 753.81 170.47 728.43Q122.03 674.73 107.48 679.71Q136.04 639.79 144.14 652.19L193.61 644.21Q255.35 614.21 387.38 593.15ZM379.58 1294.02L464.46 1257.3Q513.11 1273.92 538.78 1262.5Q587.54 1255.55 630.31 1225.97Q665.11 1216.01 646.75 1213.36Q679.12 1198.54 719.81 1249.15Q802.52 1271.55 788.44 1307.03Q816.73 1310.31 794.99 1325.15Q757.63 1329.76 731.59 1417.47L697.42 1535.77L713.45 1545.77Q731.1 1561.37 727.51 1578.35Q747.34 1578.04 693.85 1566.79Q726.99 1566.81 697.26 1563.9Q691.32 1573.59 692.93 1596.42Q670.89 1598.14 659.27 1602.14L641.4 1601.34L616.93 1572.61Q614.81 1590.94 607.01 1602.6L619.25 1583.22L623.42 1586.77L603.1 1599.33L566.87 1577.71L433.56 1600.24L455.59 1645.96Q437.5 1653.59 408.64 1654.92Q400.92 1659.99 368.94 1561.56L345.24 1431.51Q321.55 1340.9 291.46 1306.16Q256.84 1304.76 268.39 1303.35Q285.35 1283.84 288.87 1281.8Q317.66 1289.67 314.62 1281.47ZM437.5 1540.32L592.66 1517.34L633.41 1368.65Q646.93 1317 637.64 1308.99Q630.42 1311.74 629.61 1287.41Q603.56 1324.94 577.75 1292.68L440.11 1335.83ZM383.02 843.11L425.73 870.35Q516.2 843.83 609.23 815Q646.92 775.48 647.56 801.85Q655.52 786.72 661.12 778.55Q673.96 791.69 688.53 798.21Q694.58 784.44 691.89 803.36Q707.16 809.41 715.38 783.42Q773.15 803.66 773.87 845.57Q763.34 841.01 735.15 858.26Q725.31 858.05 669.59 850.73L644.42 887.92L495.31 921.72L465.71 915.21Q455.27 927.06 464.29 903.24H449.99Q436.59 911.83 384.86 927.52Q384.5 904.04 396.02 902.14Q341.27 875.61 330.63 893.43Q345.98 873.97 358.64 859.69ZM640.84 1078.09L515.71 1099.8L456.75 1142.46Q451.41 1129.1 426.61 1123.26Q424.91 1115.74 425.45 1145.11Q413.62 1136.2 384.12 1108.1Q345.68 1090.86 346.25 1070Q322.66 1080.91 345.04 1079.72Q346.09 1048.26 397.2 1059.58L427.75 1051.8Q440.77 1054.03 520.72 1021.06L576.6 997.62Q623.86 1020.35 615.6 1018.26Q610.21 1008.64 619.37 1027.31Q632.57 1008.77 646.92 992.25Q704.32 1015.71 705.18 1019.76Q750.29 1023.7 746.19 1049.16Q740.43 1052.08 708.67 1058.54ZM998.12 1333.84L977.09 1271.57Q980.98 1275.91 970.89 1270.46Q974.45 1270.34 990.74 1263.09L1042.27 1269.92Q1094.12 1271.3 1151.07 1314.24Q1202.61 1334.02 1217.58 1421.41Q1193.51 1447.52 1201.93 1507.86Q1151.23 1519.79 1146.14 1528.67Q1106.11 1503.94 1081.95 1454.2L1042.23 1365.91L1006.65 1344.2Q996.92 1334.05 1006.76 1320.18Z" fill="black"></path></svg>