<?xml version="1.0" standalone="no"?>
<!DOCTYPE svg PUBLIC "-//W3C//DTD SVG 1.1//EN" "http://www.w3.org/Graphics/SVG/1.1/DTD/svg11.dtd" >
<svg xmlns="http://www.w3.org/2000/svg" xmlns:svg="http://www.w3.org/2000/svg" xmlns:xlink="http://www.w3.org/1999/xlink" viewBox="0 0 2048 2048"><path d="M1256.81 760.97L1246.92 556.4Q1235.84 562.77 1224.5 571.13Q1218.55 569.35 1216.94 562.3L1195.65 567.38L1196.65 575.91Q1117.02 600.64 1068.87 615.81Q1034.59 614.44 1027.06 614.88Q1013.06 613.03 976.79 604.98Q924.82 568.56 924.53 559.27Q918.13 540.51 939.29 536.45L1022.58 527.14L1151.94 519.73L1239.8 486.8L1242.49 380.48Q1238.42 257.08 1203.11 194.58Q1189.2 174.29 1184.23 153.32Q1189.16 118.97 1230.9 134.24Q1292.1 122.78 1338.47 143.89Q1402.15 166 1413.13 211.87Q1405.7 219.23 1396.96 248.73Q1383.63 281.78 1378.98 369.68L1376.74 464.1L1530.99 422.27Q1545.98 418.82 1577.17 407.5Q1609.79 421.34 1603.48 404.11Q1647.86 396.45 1650.4 394.63H1658.28Q1681.09 402.76 1735.2 436.32Q1799.15 451.24 1805.47 476.67Q1787.4 493.65 1696.23 507.53L1529.27 513.36L1373.33 531.6L1347.95 743.69L1487.44 722.42Q1561.14 719.2 1574.78 707.47H1576.77Q1615.15 715.22 1630.65 728.28Q1638.58 731.36 1669.69 749.74Q1682.37 778.52 1700.07 793.15Q1684.95 799.52 1618.2 813.33L1561.91 793.1Q1426.75 798.5 1321.19 824.76L1190.37 864.18Q1142.48 854.17 1120.51 870.69Q1134.25 870.85 1114.28 870.64Q1120.15 883.72 1091.53 866.94H1109.13Q1064.4 885.03 1016.66 847Q1002.5 833.04 985.02 811.39Q988.65 815.69 1037.96 812.96L1085.84 786.63L1162.7 791.7ZM1533.8 1006.9L1669.65 970.65L1768.13 959.03Q1800.45 952.38 1833.02 989.98Q1908.29 1013.66 1915.28 1047.72Q1924.69 1064.26 1840.44 1087.02L1751.67 1076.86L1521.43 1104.39L1531.64 1493.53L1541.6 1611.19Q1533.19 1663.13 1527.78 1768.45Q1518.33 1829.48 1468.14 1857.9Q1442.06 1904.59 1406.33 1907.58Q1389.16 1896.64 1354.07 1852.05Q1328.49 1779.9 1232.4 1708.12L1178.62 1664.44Q1176.51 1639 1157.32 1650.07Q1166.02 1636.01 1178.64 1628.17Q1182.65 1637.82 1202.48 1633.66L1220.06 1645.21L1306.65 1665.29Q1347.01 1685.61 1368.73 1690.18Q1408.45 1691.16 1400.32 1623.74Q1413.14 1610.1 1422.57 1555.53Q1419.59 1512.8 1417.41 1444.19Q1434.68 1327.65 1422.94 1242.07L1412.17 1241.29L1414.79 1109.12L1395.91 1122.96L1381.18 1113.48Q1256.19 1136.66 1154.95 1151.05L1052.38 1155.13L958.05 1200.9H949.53H960.32Q934.92 1181.02 898.57 1170.92Q821.35 1129.71 808.31 1113.01Q818.79 1095.03 824.61 1090.75L899.82 1097.41L1027.34 1069.46L1242.07 1039.76L1413.56 1019.72V954.05Q1410.71 962.55 1408.72 929.71L1409.99 917.11Q1394.88 900.72 1404.09 918.1Q1395.63 899.9 1401.51 913.12Q1399.59 902.68 1388.36 903.43L1373.27 876.04Q1369.05 862 1372.66 868.58Q1373.49 839.14 1418.35 827.12L1456.7 833.43Q1507.1 850.4 1539 871.33Q1543.89 869.48 1556.22 881.09Q1548.12 881.89 1547.81 893.18L1545.22 902.65Q1537.36 914.19 1530.34 909.12Q1540.56 916.08 1538.94 942.63L1535.78 975.34ZM584.6 553.47Q576.51 536.75 570.35 540.03Q544.56 497.52 518.02 447.01L480.14 389.26Q472.41 349.43 439.92 320.52L443.7 292.39Q437.76 276.16 435.45 263.03Q439.25 244.66 449.97 265.9Q468.18 260.6 459.46 251.71L491.34 278.88Q666.58 322.92 670.73 448.07Q666.08 487.35 632.41 525.45L623.96 530.26L717.83 527.32Q744.09 514.75 767.75 501.92Q809.22 516.19 835.8 526.05Q869.78 529.66 892.63 568.83Q875.11 580.07 831.37 587.84Q826.95 597.42 809.86 590.17L811.73 603.76L813.33 589.02L802.83 586.87L796.29 592.25L781.42 593.33L770.05 612.18Q696.81 613.25 663.62 627.19L526.9 652.22Q446.48 676.61 443.5 674.73L357.68 699.56Q324.01 703.46 294.85 724.07Q286.15 724.27 262.78 731.82Q242.49 723.81 185.85 716.19Q117.02 688.63 113.01 654.07Q124.27 637.28 138.84 644.93L204.51 633.43Q245.3 635.83 364.56 585.24ZM354.38 1288.17L472.32 1276.03Q494.34 1275.39 540.54 1244.17Q595.13 1243.18 620.23 1224.38Q640.86 1211.46 654.76 1214.01Q669.9 1197.47 729.15 1228.26Q781.03 1270.99 786.79 1290.23Q786.01 1287.1 777.58 1299.13Q747.57 1336.87 713.4 1398.81L668.17 1533.17L709.79 1530.51Q723.49 1561.54 714.97 1552.66Q726.43 1575.72 704.62 1581.83Q707.55 1569.86 689.65 1583.07Q699.61 1573.6 680.72 1579.44Q674.28 1572.07 671.94 1576.05L650.86 1574.78L622.05 1582.18Q604.94 1569.44 603.43 1583.01L601.87 1573.48L601.47 1579.55L587.94 1580.28L567.71 1585.31L444.34 1596.88L424.22 1620.42Q415.93 1653.38 408.11 1636.38Q367.82 1644.54 350.76 1565.84L341.12 1440.14Q309.29 1342.03 280.84 1324.52Q265.75 1311.39 269.77 1304.43Q253.3 1281.37 294.97 1274.4Q306.78 1272.27 323.93 1282.45ZM449.6 1536.06L608.03 1517.43L637.41 1343.61Q629.58 1328.78 621.76 1306.12Q629.78 1297.51 613.34 1301.84Q599.02 1301 565.42 1303.88L423.35 1338.4ZM385.52 862.72L417.23 839.53Q506.2 827.06 599.16 795.59Q616.83 788.44 642 775.1Q663.42 788.45 657.74 795.12Q659.62 783.19 661.88 783.45Q680.37 792.35 677.09 784.99Q678.83 789.31 690.98 791.14Q738.98 815.54 758.72 832.78Q742.1 837.1 713.68 844.41Q713.58 856.34 681.62 856.8L654.93 853.67L492.56 898.12L468.86 905.05Q454.97 919.69 456.49 924.82H444.83Q417.04 918.18 392.79 917.9Q388.29 915.71 370.16 905.45Q338.67 877.25 348.9 863.4Q331.36 863.01 347.62 847.41ZM612.09 1078.95L518.82 1106.93L444.58 1120.63Q446.52 1124 431.34 1108.54Q436.38 1131.6 423.17 1120.17Q394.99 1126.78 379.42 1105.32Q339.51 1097.57 323.95 1059.86Q336.37 1066.52 344.49 1055.74Q348.96 1064.99 365.87 1063.35L396.17 1061.3Q451.39 1054.35 524.79 1025.56L586.89 1005.64Q605.82 1011.7 629.17 991.68Q621.64 1007.88 632.98 1001.65Q629.08 990.02 640.67 1003.34Q681.13 1000.55 718.79 1025.1Q736.25 1025.04 736.02 1044.36Q749.91 1052.23 705.69 1058.01ZM976.61 1309.56L967.81 1274.23Q967.4 1272.71 964.31 1257.26Q964.73 1253.86 965.4 1242.59L1022.07 1269.89Q1077.33 1288.67 1134.29 1309.62Q1207.17 1352.53 1205.83 1402.35Q1199.39 1456.2 1183.8 1476.61Q1169.82 1517.05 1138.19 1501.84Q1124.73 1511.27 1067.98 1428.14L1025.5 1374.91L1008.2 1364.68Q998.55 1338.35 975.95 1307.31Z" fill="black"></path></svg>