<?xml version="1.0" standalone="no"?>
<!DOCTYPE svg PUBLIC "-//W3C//DTD SVG 1.1//EN" "http://www.w3.org/Graphics/SVG/1.1/DTD/svg11.dtd" >
<svg xmlns="http://www.w3.org/2000/svg" xmlns:svg="http://www.w3.org/2000/svg" xmlns:xlink="http://www.w3.org/1999/xlink" viewBox="0 0 2048 2048"><path d="M1255.5 779.0 1257.5 571.0Q1252.5 572.0 1241.5 575.0Q1237.5 576.0 1222.5 579.0L1213.5 582.0L1206.5 583.0Q1117.5 604.0 1069.5 623.0Q1049.5 631.0 1032.5 631.0Q1010.5 631.0 977.5 607.0Q931.5 575.0 931.5 566.0Q931.5 556.0 950.5 552.0L1020.5 539.0L1156.5 517.0L1254.5 497.0L1251.5 394.0Q1248.5 259.0 1214.5 196.0Q1202.5 174.0 1202.5 164.0Q1201.5 135.0 1242.5 135.0Q1290.5 135.0 1346.5 157.0Q1409.5 182.0 1409.5 208.0Q1409.5 221.0 1396.5 251.0Q1380.5 291.0 1378.5 381.0L1375.5 472.0L1538.5 435.0Q1563.5 430.0 1585.5 425.0Q1615.5 419.0 1620.5 418.0Q1648.5 412.0 1655.5 412.0H1660.5Q1685.5 412.0 1748.5 442.0Q1804.5 469.0 1804.5 488.0Q1804.5 511.0 1696.5 517.0L1535.5 527.0L1372.5 547.0L1363.5 761.0L1504.5 732.0Q1574.5 718.0 1584.5 718.0H1586.5Q1611.5 718.0 1642.5 735.0Q1657.5 743.0 1679.5 763.0Q1699.5 781.0 1699.5 790.0Q1699.5 810.0 1637.5 811.0L1559.5 812.0Q1439.5 814.0 1334.5 836.0L1208.5 863.0Q1156.5 873.0 1139.5 879.0Q1135.5 880.0 1129.5 882.0Q1117.5 886.0 1111.5 886.0H1107.5Q1077.5 886.0 1032.5 855.0Q1003.5 836.0 1003.5 822.0Q1003.5 816.0 1039.5 811.0L1095.5 803.0L1175.5 794.0ZM1535.5 1009.0 1680.5 984.0 1766.5 965.0Q1799.5 965.0 1852.5 992.0Q1926.5 1028.0 1926.5 1061.0Q1926.5 1084.0 1843.5 1088.0L1752.5 1092.0L1532.5 1104.0L1541.5 1491.0L1544.5 1618.0Q1545.5 1680.0 1530.5 1766.0Q1519.5 1829.0 1480.5 1870.0Q1439.5 1913.0 1416.5 1913.0Q1392.5 1913.0 1361.5 1859.0Q1326.5 1797.0 1230.5 1707.0L1183.5 1663.0Q1176.5 1657.0 1176.5 1653.0Q1176.5 1640.0 1190.5 1640.0Q1195.5 1640.0 1198.5 1641.0L1236.5 1655.0L1313.5 1680.0Q1351.5 1692.0 1365.5 1692.0Q1415.5 1692.0 1417.5 1622.0Q1417.5 1621.0 1420.5 1574.0Q1422.5 1517.0 1425.5 1462.0Q1432.5 1344.0 1432.5 1261.0L1431.5 1241.0L1430.5 1118.0L1415.5 1120.0L1393.5 1122.0Q1265.5 1135.0 1172.5 1152.0L1061.5 1172.0L965.5 1197.0H961.5H956.5Q935.5 1197.0 899.5 1181.0Q818.5 1145.0 818.5 1126.0Q818.5 1108.0 844.5 1105.0L900.5 1098.0L1039.5 1080.0L1254.5 1053.0L1421.5 1026.0V968.0Q1420.5 962.0 1410.5 935.0L1408.5 929.0Q1404.5 919.0 1403.5 916.0Q1401.5 911.0 1401.5 910.0Q1401.5 909.0 1400.5 908.0L1388.5 888.0Q1381.5 876.0 1381.5 869.0Q1381.5 842.0 1431.5 846.0L1473.5 849.0Q1512.5 852.0 1542.5 872.0Q1555.5 880.0 1556.5 897.0Q1555.5 898.0 1555.5 901.0L1553.5 905.0Q1551.5 911.0 1549.5 915.0Q1541.5 935.0 1539.5 954.0L1538.5 983.0ZM598.5 556.0Q592.5 551.0 582.5 543.0Q548.5 515.0 520.5 459.0L493.5 406.0Q474.5 369.0 455.5 321.0L443.5 293.0Q439.5 285.0 439.5 280.0Q439.5 263.0 456.5 263.0Q466.5 263.0 474.5 266.0L501.5 276.0Q670.5 341.0 670.5 445.0Q670.5 490.0 650.5 526.0L640.5 546.0L720.5 526.0Q760.5 516.0 777.5 516.0Q806.5 516.0 845.5 531.0Q889.5 548.0 889.5 567.0Q889.5 587.0 843.5 596.0Q834.5 597.0 825.5 599.0L819.5 600.0L816.5 601.0L809.5 602.0L799.5 604.0L785.5 606.0L769.5 609.0Q697.5 620.0 665.5 628.0L524.5 662.0Q462.5 677.0 440.5 684.0L372.5 706.0Q329.5 720.0 304.5 733.0Q284.5 743.0 271.5 743.0Q241.5 743.0 186.5 720.0Q121.5 693.0 121.5 670.0Q121.5 652.0 151.5 647.0L203.5 639.0Q243.5 633.0 378.5 604.0ZM372.5 1297.0 483.5 1275.0Q501.5 1272.0 538.5 1260.0Q598.5 1242.0 627.5 1228.0Q653.5 1216.0 660.5 1216.0Q683.5 1216.0 733.5 1240.0Q797.5 1270.0 797.5 1291.0Q797.5 1299.0 782.5 1313.0Q752.5 1343.0 727.5 1415.0L687.5 1531.0L711.5 1546.0Q729.5 1558.0 729.5 1567.0Q729.5 1580.0 708.5 1581.0Q707.5 1581.0 705.5 1581.0Q702.5 1581.0 696.5 1582.0Q686.5 1582.0 672.5 1583.0L659.5 1584.0L622.5 1587.0Q621.5 1587.0 619.5 1587.0L612.5 1588.0L603.5 1590.0L585.5 1592.0L564.5 1595.0L446.5 1611.0L438.5 1631.0Q430.5 1651.0 415.5 1651.0Q381.5 1651.0 366.5 1571.0L341.5 1439.0Q324.5 1354.0 289.5 1325.0Q270.5 1310.0 271.5 1301.0Q272.5 1285.0 297.5 1285.0Q311.5 1285.0 332.5 1289.0ZM446.5 1548.0 607.5 1516.0 635.5 1349.0Q638.5 1334.0 638.5 1325.0Q638.5 1307.0 619.5 1307.0Q607.5 1307.0 581.5 1312.0L421.5 1342.0ZM385.5 861.0 416.5 856.0Q511.5 841.0 601.5 806.0Q631.5 794.0 649.5 794.0Q662.5 794.0 668.5 796.0Q670.5 796.0 673.5 797.0Q681.5 799.0 695.5 802.0Q698.5 803.0 701.5 803.0Q755.5 816.0 755.5 834.0Q755.5 850.0 726.5 858.0Q717.5 860.0 688.5 867.0L663.5 873.0L504.5 911.0L477.5 918.0Q465.5 921.0 455.5 922.0H450.5Q423.5 923.0 399.5 915.0Q395.5 913.0 387.5 910.0Q343.5 893.0 345.5 877.0Q346.5 867.0 364.5 864.0ZM626.5 1092.0 527.5 1112.0 462.5 1127.0Q457.5 1128.0 444.5 1128.0Q440.5 1128.0 431.5 1127.0Q410.5 1125.0 388.5 1117.0Q338.5 1100.0 338.5 1078.0Q338.5 1071.0 354.5 1069.0Q365.5 1068.0 382.5 1065.0L412.5 1060.0Q458.5 1056.0 532.5 1034.0L591.5 1016.0Q615.5 1009.0 628.5 1009.0Q629.5 1009.0 632.5 1009.0Q635.5 1009.0 642.5 1010.0Q685.5 1012.0 715.5 1025.0Q751.5 1040.0 750.5 1054.0Q749.5 1068.0 721.5 1072.0ZM992.5 1322.0 971.5 1287.0Q965.5 1278.0 965.5 1272.0Q965.5 1254.0 983.5 1259.0L1027.5 1271.0Q1083.5 1286.0 1144.5 1319.0Q1204.5 1351.0 1204.5 1415.0Q1204.5 1462.0 1184.5 1494.0Q1169.5 1520.0 1148.5 1520.0Q1123.5 1520.0 1073.5 1446.0L1032.5 1383.0L1016.5 1361.0Q1003.5 1341.0 992.5 1322.0Z" fill="black"></path></svg>